<svg width="100" height="100" viewBox="0 0 100 100" fill="none" xmlns="http://www.w3.org/2000/svg">
<path d="M36.666 16.668H83.333V83.332H36.666V16.668ZM18.545 39.031L30 34.863V70.501L18.545 39.031Z" fill="#F0F0F4"/>
<path d="M30 27.765V10H90V90H30L10 35.045L30 27.765ZM36.666 83.331H83.333V16.667H36.666V83.331ZM30 34.862L18.545 39.03L30 70.5V34.862Z" fill="#BDBDC2"/>
<path d="M55 30.9189L62.482 29.8709L65.832 23.3359L69.181 29.8709L76.667 30.9189L71.249 36.0049L72.523 43.1929L65.832 39.8039L59.135 43.1929L60.417 36.0049L55 30.9189Z" fill="#FCBB09"/>
<path d="M43.334 39.1114L47.938 38.4664L50.001 34.4434L52.057 38.4664L56.666 39.1114L53.333 42.2394L54.114 46.6654L50.001 44.5814L45.877 46.6654L46.667 42.2414L43.334 39.1114Z" fill="#EF5350"/>
<path d="M76.667 71.666H50.001V76.666H76.667V71.666ZM76.667 61.666H43.334V66.666H76.667V61.666Z" fill="#5363B9"/>
<path d="M76.667 51.666H56.667V56.666H76.667V51.666Z" fill="#7BB721"/>
<path d="M76.667 71.666H72.667V76.666H76.667V71.666ZM76.667 61.666H72.667V66.666H76.667V61.666Z" fill="#3C3C43" fill-opacity="0.2"/>
<path d="M76.667 51.666H72.667V56.666H76.667V51.666Z" fill="#3C3C43" fill-opacity="0.2"/>
<path d="M30 34.8626L26 36.3176V29.2216L30 27.7656V34.8626ZM26 59.5116L30 70.5006V90.0006L26 79.0106V59.5116Z" fill="#3C3C43" fill-opacity="0.2"/>
<path d="M26 36.318L30 34.863V70.501L26 59.512V36.318ZM79.333 79.332H36.666V83.332H83.333V16.668H79.333V79.332Z" fill="#E0E0E4"/>
<path d="M66.848 34.0879L68.06 40.9319L72.523 43.1929L71.249 36.0039L76.667 30.9179L69.181 29.8699L65.832 23.3359L63.584 27.7199L66.848 34.0879Z" fill="#3C3C43" fill-opacity="0.2"/>
</svg>
